<?xml version="1.0" encoding="UTF-8" standalone="no"?>
<!DOCTYPE svg PUBLIC "-//W3C//DTD SVG 1.1//EN"
 "http://www.w3.org/Graphics/SVG/1.1/DTD/svg11.dtd">
<!-- Generated by graphviz version 2.38.0 (20140413.2041)
 -->
<!-- Title: snakemake_dag Pages: 1 -->
<svg width="500pt" height="764pt"
 viewBox="0.00 0.00 499.50 764.00" xmlns="http://www.w3.org/2000/svg" xmlns:xlink="http://www.w3.org/1999/xlink">
<g id="graph0" class="graph" transform="scale(1 1) rotate(0) translate(4 760)">
<title>snakemake_dag</title>
<polygon fill="white" stroke="none" points="-4,4 -4,-760 495.5,-760 495.5,4 -4,4"/>
<!-- 0 -->
<g id="node1" class="node"><title>0</title>
<path fill="none" stroke="#d85656" stroke-width="2" d="M75,-468C75,-468 12,-468 12,-468 6,-468 0,-462 0,-456 0,-456 0,-444 0,-444 0,-438 6,-432 12,-432 12,-432 75,-432 75,-432 81,-432 87,-438 87,-444 87,-444 87,-456 87,-456 87,-462 81,-468 75,-468"/>
<text text-anchor="middle" x="43.5" y="-447.5" font-family="sans" font-size="10.00">reorder_wham</text>
</g>
<!-- 16 -->
<g id="node17" class="node"><title>16</title>
<path fill="none" stroke="#56a2d8" stroke-width="2" d="M315,-396C315,-396 250,-396 250,-396 244,-396 238,-390 238,-384 238,-384 238,-372 238,-372 238,-366 244,-360 250,-360 250,-360 315,-360 315,-360 321,-360 327,-366 327,-372 327,-372 327,-384 327,-384 327,-390 321,-396 315,-396"/>
<text text-anchor="middle" x="282.5" y="-375.5" font-family="sans" font-size="10.00">merge_svtools</text>
</g>
<!-- 0&#45;&gt;16 -->
<g id="edge21" class="edge"><title>0&#45;&gt;16</title>
<path fill="none" stroke="grey" stroke-width="2" d="M87.1373,-434.878C90.3021,-433.892 93.448,-432.924 96.5,-432 140.415,-418.704 190.446,-404.501 227.549,-394.148"/>
<polygon fill="grey" stroke="grey" stroke-width="2" points="228.961,-397.388 237.656,-391.334 227.084,-390.644 228.961,-397.388"/>
</g>
<!-- 1 -->
<g id="node2" class="node"><title>1</title>
<path fill="none" stroke="#d8bc56" stroke-width="2" d="M300.5,-252C300.5,-252 206.5,-252 206.5,-252 200.5,-252 194.5,-246 194.5,-240 194.5,-240 194.5,-228 194.5,-228 194.5,-222 200.5,-216 206.5,-216 206.5,-216 300.5,-216 300.5,-216 306.5,-216 312.5,-222 312.5,-228 312.5,-228 312.5,-240 312.5,-240 312.5,-246 306.5,-252 300.5,-252"/>
<text text-anchor="middle" x="253.5" y="-231.5" font-family="sans" font-size="10.00">Calculate_brkpt_freq</text>
</g>
<!-- 5 -->
<g id="node6" class="node"><title>5</title>
<path fill="none" stroke="#56d863" stroke-width="2" d="M196,-180C196,-180 157,-180 157,-180 151,-180 145,-174 145,-168 145,-168 145,-156 145,-156 145,-150 151,-144 157,-144 157,-144 196,-144 196,-144 202,-144 208,-150 208,-156 208,-156 208,-168 208,-168 208,-174 202,-180 196,-180"/>
<text text-anchor="middle" x="176.5" y="-159.5" font-family="sans" font-size="10.00">summary</text>
</g>
<!-- 1&#45;&gt;5 -->
<g id="edge7" class="edge"><title>1&#45;&gt;5</title>
<path fill="none" stroke="grey" stroke-width="2" d="M234.466,-215.697C224.955,-207.05 213.293,-196.449 202.93,-187.027"/>
<polygon fill="grey" stroke="grey" stroke-width="2" points="205.069,-184.241 195.315,-180.104 200.36,-189.421 205.069,-184.241"/>
</g>
<!-- 7 -->
<g id="node8" class="node"><title>7</title>
<path fill="none" stroke="#61d856" stroke-width="2" d="M362.5,-108C362.5,-108 332.5,-108 332.5,-108 326.5,-108 320.5,-102 320.5,-96 320.5,-96 320.5,-84 320.5,-84 320.5,-78 326.5,-72 332.5,-72 332.5,-72 362.5,-72 362.5,-72 368.5,-72 374.5,-78 374.5,-84 374.5,-84 374.5,-96 374.5,-96 374.5,-102 368.5,-108 362.5,-108"/>
<text text-anchor="middle" x="347.5" y="-87.5" font-family="sans" font-size="10.00">report</text>
</g>
<!-- 1&#45;&gt;7 -->
<g id="edge9" class="edge"><title>1&#45;&gt;7</title>
<path fill="none" stroke="grey" stroke-width="2" d="M265.257,-215.87C272.331,-205.518 281.49,-192.039 289.5,-180 303.594,-158.818 319.341,-134.62 330.866,-116.808"/>
<polygon fill="grey" stroke="grey" stroke-width="2" points="333.989,-118.424 336.477,-108.125 328.11,-114.625 333.989,-118.424"/>
</g>
<!-- 14 -->
<g id="node15" class="node"><title>14</title>
<path fill="none" stroke="#56d0d8" stroke-width="2" d="M268.5,-180C268.5,-180 238.5,-180 238.5,-180 232.5,-180 226.5,-174 226.5,-168 226.5,-168 226.5,-156 226.5,-156 226.5,-150 232.5,-144 238.5,-144 238.5,-144 268.5,-144 268.5,-144 274.5,-144 280.5,-150 280.5,-156 280.5,-156 280.5,-168 280.5,-168 280.5,-174 274.5,-180 268.5,-180"/>
<text text-anchor="middle" x="253.5" y="-159.5" font-family="sans" font-size="10.00">circlize</text>
</g>
<!-- 1&#45;&gt;14 -->
<g id="edge18" class="edge"><title>1&#45;&gt;14</title>
<path fill="none" stroke="grey" stroke-width="2" d="M253.5,-215.697C253.5,-207.983 253.5,-198.712 253.5,-190.112"/>
<polygon fill="grey" stroke="grey" stroke-width="2" points="257,-190.104 253.5,-180.104 250,-190.104 257,-190.104"/>
</g>
<!-- 2 -->
<g id="node3" class="node"><title>2</title>
<path fill="none" stroke="#d88556" stroke-width="2" d="M455,-540C455,-540 412,-540 412,-540 406,-540 400,-534 400,-528 400,-528 400,-516 400,-516 400,-510 406,-504 412,-504 412,-504 455,-504 455,-504 461,-504 467,-510 467,-516 467,-516 467,-528 467,-528 467,-534 461,-540 455,-540"/>
<text text-anchor="middle" x="433.5" y="-519.5" font-family="sans" font-size="10.00">run_gridss</text>
</g>
<!-- 11 -->
<g id="node12" class="node"><title>11</title>
<path fill="none" stroke="#56d8a9" stroke-width="2" d="M429.5,-468C429.5,-468 367.5,-468 367.5,-468 361.5,-468 355.5,-462 355.5,-456 355.5,-456 355.5,-444 355.5,-444 355.5,-438 361.5,-432 367.5,-432 367.5,-432 429.5,-432 429.5,-432 435.5,-432 441.5,-438 441.5,-444 441.5,-444 441.5,-456 441.5,-456 441.5,-462 435.5,-468 429.5,-468"/>
<text text-anchor="middle" x="398.5" y="-447.5" font-family="sans" font-size="10.00">reorder_gridss</text>
</g>
<!-- 2&#45;&gt;11 -->
<g id="edge13" class="edge"><title>2&#45;&gt;11</title>
<path fill="none" stroke="grey" stroke-width="2" d="M424.848,-503.697C420.864,-495.728 416.05,-486.1 411.632,-477.264"/>
<polygon fill="grey" stroke="grey" stroke-width="2" points="414.655,-475.483 407.052,-468.104 408.394,-478.614 414.655,-475.483"/>
</g>
<!-- 15 -->
<g id="node16" class="node"><title>15</title>
<path fill="none" stroke="#56b9d8" stroke-width="2" d="M479.5,-396C479.5,-396 449.5,-396 449.5,-396 443.5,-396 437.5,-390 437.5,-384 437.5,-384 437.5,-372 437.5,-372 437.5,-366 443.5,-360 449.5,-360 449.5,-360 479.5,-360 479.5,-360 485.5,-360 491.5,-366 491.5,-372 491.5,-372 491.5,-384 491.5,-384 491.5,-390 485.5,-396 479.5,-396"/>
<text text-anchor="middle" x="464.5" y="-375.5" font-family="sans" font-size="10.00">Metrics</text>
</g>
<!-- 2&#45;&gt;15 -->
<g id="edge19" class="edge"><title>2&#45;&gt;15</title>
<path fill="none" stroke="grey" stroke-width="2" d="M439.856,-503.525C443.392,-493.284 447.642,-480.034 450.5,-468 455.349,-447.584 458.961,-424.124 461.3,-406.418"/>
<polygon fill="grey" stroke="grey" stroke-width="2" points="464.808,-406.575 462.592,-396.215 457.864,-405.696 464.808,-406.575"/>
</g>
<!-- 3 -->
<g id="node4" class="node"><title>3</title>
<path fill="none" stroke="#97d856" stroke-width="2" d="M188,-612C188,-612 127,-612 127,-612 121,-612 115,-606 115,-600 115,-600 115,-588 115,-588 115,-582 121,-576 127,-576 127,-576 188,-576 188,-576 194,-576 200,-582 200,-588 200,-588 200,-600 200,-600 200,-606 194,-612 188,-612"/>
<text text-anchor="middle" x="157.5" y="-591.5" font-family="sans" font-size="10.00">run_breakmer</text>
</g>
<!-- 17 -->
<g id="node18" class="node"><title>17</title>
<path fill="none" stroke="#d8a456" stroke-width="2" d="M196,-540C196,-540 119,-540 119,-540 113,-540 107,-534 107,-528 107,-528 107,-516 107,-516 107,-510 113,-504 119,-504 119,-504 196,-504 196,-504 202,-504 208,-510 208,-516 208,-516 208,-528 208,-528 208,-534 202,-540 196,-540"/>
<text text-anchor="middle" x="157.5" y="-519.5" font-family="sans" font-size="10.00">concat_breakmer</text>
</g>
<!-- 3&#45;&gt;17 -->
<g id="edge24" class="edge"><title>3&#45;&gt;17</title>
<path fill="none" stroke="grey" stroke-width="2" d="M157.5,-575.697C157.5,-567.983 157.5,-558.712 157.5,-550.112"/>
<polygon fill="grey" stroke="grey" stroke-width="2" points="161,-550.104 157.5,-540.104 154,-550.104 161,-550.104"/>
</g>
<!-- 4 -->
<g id="node5" class="node"><title>4</title>
<path fill="none" stroke="#d8d356" stroke-width="2" d="M325,-468C325,-468 240,-468 240,-468 234,-468 228,-462 228,-456 228,-456 228,-444 228,-444 228,-438 234,-432 240,-432 240,-432 325,-432 325,-432 331,-432 337,-438 337,-444 337,-444 337,-456 337,-456 337,-462 331,-468 325,-468"/>
<text text-anchor="middle" x="282.5" y="-447.5" font-family="sans" font-size="10.00">reorder_novobreak</text>
</g>
<!-- 4&#45;&gt;16 -->
<g id="edge22" class="edge"><title>4&#45;&gt;16</title>
<path fill="none" stroke="grey" stroke-width="2" d="M282.5,-431.697C282.5,-423.983 282.5,-414.712 282.5,-406.112"/>
<polygon fill="grey" stroke="grey" stroke-width="2" points="286,-406.104 282.5,-396.104 279,-406.104 286,-406.104"/>
</g>
<!-- 13 -->
<g id="node14" class="node"><title>13</title>
<path fill="none" stroke="#56d8c9" stroke-width="2" d="M315.5,-36C315.5,-36 285.5,-36 285.5,-36 279.5,-36 273.5,-30 273.5,-24 273.5,-24 273.5,-12 273.5,-12 273.5,-6 279.5,-0 285.5,-0 285.5,-0 315.5,-0 315.5,-0 321.5,-0 327.5,-6 327.5,-12 327.5,-12 327.5,-24 327.5,-24 327.5,-30 321.5,-36 315.5,-36"/>
<text text-anchor="middle" x="300.5" y="-15.5" font-family="sans" font-size="10.00">all</text>
</g>
<!-- 5&#45;&gt;13 -->
<g id="edge15" class="edge"><title>5&#45;&gt;13</title>
<path fill="none" stroke="grey" stroke-width="2" d="M175.951,-143.785C176.212,-124.403 179.389,-92.8952 195.5,-72 212.335,-50.166 240.62,-36.6202 263.594,-28.6936"/>
<polygon fill="grey" stroke="grey" stroke-width="2" points="264.946,-31.935 273.39,-25.5351 262.798,-25.2728 264.946,-31.935"/>
</g>
<!-- 6 -->
<g id="node7" class="node"><title>6</title>
<path fill="none" stroke="#78d856" stroke-width="2" d="M248.5,-324C248.5,-324 144.5,-324 144.5,-324 138.5,-324 132.5,-318 132.5,-312 132.5,-312 132.5,-300 132.5,-300 132.5,-294 138.5,-288 144.5,-288 144.5,-288 248.5,-288 248.5,-288 254.5,-288 260.5,-294 260.5,-300 260.5,-300 260.5,-312 260.5,-312 260.5,-318 254.5,-324 248.5,-324"/>
<text text-anchor="middle" x="196.5" y="-303.5" font-family="sans" font-size="10.00">obtain_breakpoint_cov</text>
</g>
<!-- 6&#45;&gt;1 -->
<g id="edge2" class="edge"><title>6&#45;&gt;1</title>
<path fill="none" stroke="grey" stroke-width="2" d="M210.59,-287.697C217.423,-279.305 225.757,-269.07 233.256,-259.861"/>
<polygon fill="grey" stroke="grey" stroke-width="2" points="235.972,-262.069 239.572,-252.104 230.544,-257.649 235.972,-262.069"/>
</g>
<!-- 7&#45;&gt;13 -->
<g id="edge17" class="edge"><title>7&#45;&gt;13</title>
<path fill="none" stroke="grey" stroke-width="2" d="M335.882,-71.6966C330.361,-63.4741 323.653,-53.4832 317.568,-44.4207"/>
<polygon fill="grey" stroke="grey" stroke-width="2" points="320.465,-42.4555 311.984,-36.1043 314.653,-46.3576 320.465,-42.4555"/>
</g>
<!-- 8 -->
<g id="node9" class="node"><title>8</title>
<path fill="none" stroke="#d86e56" stroke-width="2" d="M65.5,-540C65.5,-540 21.5,-540 21.5,-540 15.5,-540 9.5,-534 9.5,-528 9.5,-528 9.5,-516 9.5,-516 9.5,-510 15.5,-504 21.5,-504 21.5,-504 65.5,-504 65.5,-504 71.5,-504 77.5,-510 77.5,-516 77.5,-516 77.5,-528 77.5,-528 77.5,-534 71.5,-540 65.5,-540"/>
<text text-anchor="middle" x="43.5" y="-519.5" font-family="sans" font-size="10.00">run_wham</text>
</g>
<!-- 8&#45;&gt;0 -->
<g id="edge1" class="edge"><title>8&#45;&gt;0</title>
<path fill="none" stroke="grey" stroke-width="2" d="M43.5,-503.697C43.5,-495.983 43.5,-486.712 43.5,-478.112"/>
<polygon fill="grey" stroke="grey" stroke-width="2" points="47.0001,-478.104 43.5,-468.104 40.0001,-478.104 47.0001,-478.104"/>
</g>
<!-- 9 -->
<g id="node10" class="node"><title>9</title>
<path fill="none" stroke="#56d87b" stroke-width="2" d="M446,-324C446,-324 399,-324 399,-324 393,-324 387,-318 387,-312 387,-312 387,-300 387,-300 387,-294 393,-288 399,-288 399,-288 446,-288 446,-288 452,-288 458,-294 458,-300 458,-300 458,-312 458,-312 458,-318 452,-324 446,-324"/>
<text text-anchor="middle" x="422.5" y="-303.5" font-family="sans" font-size="10.00">All_metrics</text>
</g>
<!-- 9&#45;&gt;13 -->
<g id="edge16" class="edge"><title>9&#45;&gt;13</title>
<path fill="none" stroke="grey" stroke-width="2" d="M424.104,-287.802C427.048,-246.747 429.305,-141.281 383.5,-72 372.282,-55.033 353.566,-42.3897 336.742,-33.7157"/>
<polygon fill="grey" stroke="grey" stroke-width="2" points="338.175,-30.5207 327.651,-29.3029 335.119,-36.8182 338.175,-30.5207"/>
</g>
<!-- 10 -->
<g id="node11" class="node"><title>10</title>
<path fill="none" stroke="#56d892" stroke-width="2" d="M196.5,-756C196.5,-756 118.5,-756 118.5,-756 112.5,-756 106.5,-750 106.5,-744 106.5,-744 106.5,-732 106.5,-732 106.5,-726 112.5,-720 118.5,-720 118.5,-720 196.5,-720 196.5,-720 202.5,-720 208.5,-726 208.5,-732 208.5,-732 208.5,-744 208.5,-744 208.5,-750 202.5,-756 196.5,-756"/>
<text text-anchor="middle" x="157.5" y="-735.5" font-family="sans" font-size="10.00">create_targetfiles</text>
</g>
<!-- 10&#45;&gt;3 -->
<g id="edge4" class="edge"><title>10&#45;&gt;3</title>
<path fill="none" stroke="grey" stroke-width="2" d="M145.613,-719.725C139.487,-709.765 132.655,-696.727 129.5,-684 125.65,-668.47 125.65,-663.53 129.5,-648 131.792,-638.753 136.026,-629.342 140.519,-621.067"/>
<polygon fill="grey" stroke="grey" stroke-width="2" points="143.628,-622.682 145.613,-612.275 137.571,-619.173 143.628,-622.682"/>
</g>
<!-- 19 -->
<g id="node20" class="node"><title>19</title>
<path fill="none" stroke="#afd856" stroke-width="2" d="M260.5,-684C260.5,-684 150.5,-684 150.5,-684 144.5,-684 138.5,-678 138.5,-672 138.5,-672 138.5,-660 138.5,-660 138.5,-654 144.5,-648 150.5,-648 150.5,-648 260.5,-648 260.5,-648 266.5,-648 272.5,-654 272.5,-660 272.5,-660 272.5,-672 272.5,-672 272.5,-678 266.5,-684 260.5,-684"/>
<text text-anchor="middle" x="205.5" y="-663.5" font-family="sans" font-size="10.00">create_config_breakmer</text>
</g>
<!-- 10&#45;&gt;19 -->
<g id="edge26" class="edge"><title>10&#45;&gt;19</title>
<path fill="none" stroke="grey" stroke-width="2" d="M169.365,-719.697C175.003,-711.474 181.854,-701.483 188.069,-692.421"/>
<polygon fill="grey" stroke="grey" stroke-width="2" points="191.003,-694.331 193.771,-684.104 185.229,-690.372 191.003,-694.331"/>
</g>
<!-- 11&#45;&gt;16 -->
<g id="edge20" class="edge"><title>11&#45;&gt;16</title>
<path fill="none" stroke="grey" stroke-width="2" d="M370.123,-431.876C354.956,-422.724 336.095,-411.342 319.761,-401.485"/>
<polygon fill="grey" stroke="grey" stroke-width="2" points="321.356,-398.36 310.986,-396.19 317.739,-404.353 321.356,-398.36"/>
</g>
<!-- 12 -->
<g id="node13" class="node"><title>12</title>
<path fill="none" stroke="#c6d856" stroke-width="2" d="M315,-540C315,-540 250,-540 250,-540 244,-540 238,-534 238,-528 238,-528 238,-516 238,-516 238,-510 244,-504 250,-504 250,-504 315,-504 315,-504 321,-504 327,-510 327,-516 327,-516 327,-528 327,-528 327,-534 321,-540 315,-540"/>
<text text-anchor="middle" x="282.5" y="-519.5" font-family="sans" font-size="10.00">run_novobreak</text>
</g>
<!-- 12&#45;&gt;4 -->
<g id="edge6" class="edge"><title>12&#45;&gt;4</title>
<path fill="none" stroke="grey" stroke-width="2" d="M282.5,-503.697C282.5,-495.983 282.5,-486.712 282.5,-478.112"/>
<polygon fill="grey" stroke="grey" stroke-width="2" points="286,-478.104 282.5,-468.104 279,-478.104 286,-478.104"/>
</g>
<!-- 14&#45;&gt;7 -->
<g id="edge10" class="edge"><title>14&#45;&gt;7</title>
<path fill="none" stroke="grey" stroke-width="2" d="M276.736,-143.697C288.688,-134.796 303.423,-123.823 316.347,-114.199"/>
<polygon fill="grey" stroke="grey" stroke-width="2" points="318.601,-116.884 324.531,-108.104 314.42,-111.27 318.601,-116.884"/>
</g>
<!-- 18 -->
<g id="node19" class="node"><title>18</title>
<path fill="none" stroke="#568ad8" stroke-width="2" d="M290,-108C290,-108 217,-108 217,-108 211,-108 205,-102 205,-96 205,-96 205,-84 205,-84 205,-78 211,-72 217,-72 217,-72 290,-72 290,-72 296,-72 302,-78 302,-84 302,-84 302,-96 302,-96 302,-102 296,-108 290,-108"/>
<text text-anchor="middle" x="253.5" y="-87.5" font-family="sans" font-size="10.00">lightBox_circlize</text>
</g>
<!-- 14&#45;&gt;18 -->
<g id="edge25" class="edge"><title>14&#45;&gt;18</title>
<path fill="none" stroke="grey" stroke-width="2" d="M253.5,-143.697C253.5,-135.983 253.5,-126.712 253.5,-118.112"/>
<polygon fill="grey" stroke="grey" stroke-width="2" points="257,-118.104 253.5,-108.104 250,-118.104 257,-118.104"/>
</g>
<!-- 15&#45;&gt;9 -->
<g id="edge12" class="edge"><title>15&#45;&gt;9</title>
<path fill="none" stroke="grey" stroke-width="2" d="M454.118,-359.697C449.235,-351.559 443.313,-341.689 437.921,-332.701"/>
<polygon fill="grey" stroke="grey" stroke-width="2" points="440.909,-330.879 432.763,-324.104 434.906,-334.48 440.909,-330.879"/>
</g>
<!-- 16&#45;&gt;1 -->
<g id="edge3" class="edge"><title>16&#45;&gt;1</title>
<path fill="none" stroke="grey" stroke-width="2" d="M280.753,-359.801C278.744,-341.773 274.999,-312.692 269.5,-288 267.569,-279.329 264.947,-270.011 262.384,-261.644"/>
<polygon fill="grey" stroke="grey" stroke-width="2" points="265.692,-260.494 259.339,-252.015 259.018,-262.605 265.692,-260.494"/>
</g>
<!-- 16&#45;&gt;6 -->
<g id="edge8" class="edge"><title>16&#45;&gt;6</title>
<path fill="none" stroke="grey" stroke-width="2" d="M261.242,-359.697C250.411,-350.881 237.082,-340.032 225.34,-330.474"/>
<polygon fill="grey" stroke="grey" stroke-width="2" points="227.479,-327.703 217.514,-324.104 223.06,-333.132 227.479,-327.703"/>
</g>
<!-- 16&#45;&gt;7 -->
<g id="edge11" class="edge"><title>16&#45;&gt;7</title>
<path fill="none" stroke="grey" stroke-width="2" d="M288.715,-359.825C297.164,-335.928 312.277,-291.166 321.5,-252 332.462,-205.45 340.277,-150.239 344.326,-118.061"/>
<polygon fill="grey" stroke="grey" stroke-width="2" points="347.807,-118.429 345.554,-108.077 340.859,-117.575 347.807,-118.429"/>
</g>
<!-- 20 -->
<g id="node21" class="node"><title>20</title>
<path fill="none" stroke="#5673d8" stroke-width="2" d="M197.5,-468C197.5,-468 117.5,-468 117.5,-468 111.5,-468 105.5,-462 105.5,-456 105.5,-456 105.5,-444 105.5,-444 105.5,-438 111.5,-432 117.5,-432 117.5,-432 197.5,-432 197.5,-432 203.5,-432 209.5,-438 209.5,-444 209.5,-444 209.5,-456 209.5,-456 209.5,-462 203.5,-468 197.5,-468"/>
<text text-anchor="middle" x="157.5" y="-447.5" font-family="sans" font-size="10.00">reorder_breakmer</text>
</g>
<!-- 17&#45;&gt;20 -->
<g id="edge27" class="edge"><title>17&#45;&gt;20</title>
<path fill="none" stroke="grey" stroke-width="2" d="M157.5,-503.697C157.5,-495.983 157.5,-486.712 157.5,-478.112"/>
<polygon fill="grey" stroke="grey" stroke-width="2" points="161,-478.104 157.5,-468.104 154,-478.104 161,-478.104"/>
</g>
<!-- 18&#45;&gt;13 -->
<g id="edge14" class="edge"><title>18&#45;&gt;13</title>
<path fill="none" stroke="grey" stroke-width="2" d="M265.118,-71.6966C270.639,-63.4741 277.347,-53.4832 283.432,-44.4207"/>
<polygon fill="grey" stroke="grey" stroke-width="2" points="286.347,-46.3576 289.016,-36.1043 280.535,-42.4555 286.347,-46.3576"/>
</g>
<!-- 19&#45;&gt;3 -->
<g id="edge5" class="edge"><title>19&#45;&gt;3</title>
<path fill="none" stroke="grey" stroke-width="2" d="M193.635,-647.697C187.997,-639.474 181.146,-629.483 174.931,-620.421"/>
<polygon fill="grey" stroke="grey" stroke-width="2" points="177.771,-618.372 169.229,-612.104 171.997,-622.331 177.771,-618.372"/>
</g>
<!-- 20&#45;&gt;16 -->
<g id="edge23" class="edge"><title>20&#45;&gt;16</title>
<path fill="none" stroke="grey" stroke-width="2" d="M188.078,-431.876C204.574,-422.639 225.124,-411.131 242.836,-401.212"/>
<polygon fill="grey" stroke="grey" stroke-width="2" points="244.789,-404.13 251.804,-396.19 241.369,-398.022 244.789,-404.13"/>
</g>
</g>
</svg>
